<svg viewBox="0 0 51 53" fill="none" xmlns="http://www.w3.org/2000/svg"><rect x=".639" y=".932" width="49.658" height="51.968" rx="24.829" fill="#fff"/><path d="M25.963 28.126c3.191 0 5.85-2.528 5.85-5.563 0-3.034-2.659-5.563-5.85-5.563s-5.85 2.529-5.85 5.563c0 3.035 2.659 5.563 5.85 5.563Zm0-8.344c1.596 0 2.925 1.264 2.925 2.781 0 1.518-1.33 2.782-2.925 2.782-1.596 0-2.925-1.264-2.925-2.782 0-1.517 1.33-2.781 2.925-2.781Zm6.781 9.103c-.266-.632-1.197-1.138-2.526-.253-1.596 1.265-4.255 1.265-4.255 1.265s-2.66 0-4.255-1.265c-1.196-.885-2.127-.38-2.526.253-.532 1.138.133 1.644 1.596 2.529 1.196.758 2.925 1.011 4.121 1.138l-.93.885-3.457 3.287c-.532.506-.532 1.265 0 1.77l.133.127c.531.505 1.33.505 1.861 0l3.457-3.288 3.457 3.288c.532.505 1.33.505 1.861 0l.134-.127c.531-.505.531-1.264 0-1.77l-3.458-3.287-.93-.885c1.063-.127 2.792-.38 4.121-1.138 1.596-.885 2.26-1.517 1.596-2.529Z" fill="#E3000B"/></svg>