<svg viewBox="0 0 51 53" fill="none" xmlns="http://www.w3.org/2000/svg"><rect x=".186" y=".398" width="50.813" height="51.968" rx="25.407" fill="#fff"/><path d="M35.764 21.88c-.693.326-1.5.543-2.31.543.81-.435 1.502-1.196 1.733-2.067-.808.435-1.617.762-2.54.87-.694-.76-1.733-1.196-2.888-1.196-2.194 0-4.042 1.632-4.042 3.808 0 .326 0 .544.116.87a11.223 11.223 0 0 1-8.2-3.916c-.346.543-.577 1.196-.577 1.849 0 1.306.693 2.502 1.732 3.155-.693 0-1.27-.218-1.848-.435 0 1.85 1.386 3.372 3.234 3.699-.346.108-.693.108-1.04.108-.23 0-.461 0-.808-.108.462 1.523 1.963 2.61 3.696 2.61-1.386.98-3.118 1.632-4.966 1.632h-.924c1.732 1.088 3.811 1.741 6.12 1.741 7.392 0 11.318-5.766 11.318-10.661v-.436c1.04-.652 1.617-1.305 2.194-2.067Z" fill="#E3000B"/></svg>