<svg viewBox="0 0 52 52" fill="none" xmlns="http://www.w3.org/2000/svg"><rect x=".412" width="50.813" height="51.968" rx="25.407" fill="#fff"/><path d="M31.694 26.474c-.544-.544-.979-.98-2.066-1.088v-.109c.76-.326 1.305-.652 1.63-1.196.436-.544.545-1.088.545-1.85 0-.543-.11-1.087-.435-1.522-.327-.435-.762-.87-1.305-1.087-.544-.218-1.088-.435-1.74-.544-.544-.109-1.85-.109-3.155-.109h-5.764V33h6.743c1.088 0 2.067-.109 2.828-.217.761-.218 1.414-.435 1.958-.87.543-.327.978-.762 1.196-1.306.326-.543.435-1.087.435-1.849 0-.978-.326-1.74-.87-2.284Zm-8.157-4.786h1.74c.544 0 1.088.109 1.523.218.435.217.652.543.652 1.196 0 .544-.217.87-.544 1.088-.326.217-.76.326-1.305.326h-2.066v-2.828Zm3.589 8.266a4.055 4.055 0 0 1-1.305.217h-2.284V26.8h2.393c.543 0 .979.109 1.196.217.544.218.761.653.761 1.305.11.87-.217 1.414-.761 1.632Z" fill="#E3000B"/></svg>